HIERARCHY
ROOT Bip001_Pelvis
{
  OFFSET 34.4345 95.6767 -26.8758
  CHANNELS 6 Xposition Yposition Zposition Zrotation Xrotation Yrotation
  JOINT Bip001_Spine
  {
    OFFSET 1.4188e-005 10.2191 -0.0116013
    CHANNELS 3 Zrotation Xrotation Yrotation
    JOINT Bip001_L_Thigh
    {
      OFFSET 11.0458 -10.2192 0.0116197
      CHANNELS 3 Zrotation Xrotation Yrotation
      JOINT Bip001_L_Calf
      {
        OFFSET -0.707118 -44.0221 0.360014
        CHANNELS 3 Zrotation Xrotation Yrotation
        JOINT Bip001_L_Foot
        {
          OFFSET -0.651902 -40.5938 -3.56146
          CHANNELS 3 Zrotation Xrotation Yrotation
          JOINT Bip001_L_Toe0
          {
            OFFSET 0.0530839 -10.2181 13.1504
            CHANNELS 3 Zrotation Xrotation Yrotation
            End Site
            {
              OFFSET -1.02532e-005 0 7.55606
            }
          }
        }
      }
    }
    JOINT Bip001_R_Thigh
    {
      OFFSET -11.0458 -10.2191 0.0115893
      CHANNELS 3 Zrotation Xrotation Yrotation
      JOINT Bip001_R_Calf
      {
        OFFSET 0.706994 -44.0221 0.35984
        CHANNELS 3 Zrotation Xrotation Yrotation
        JOINT Bip001_R_Foot
        {
          OFFSET 0.651786 -40.5938 -3.5613
          CHANNELS 3 Zrotation Xrotation Yrotation
          JOINT Bip001_R_Toe0
          {
            OFFSET -0.0531479 -10.2181 13.1504
            CHANNELS 3 Zrotation Xrotation Yrotation
            End Site
            {
              OFFSET -1.02894e-005 0 7.55606
            }
          }
        }
      }
    }
    JOINT Bip001_Spine1
    {
      OFFSET 1.87041e-005 14.5736 1.08638
      CHANNELS 3 Zrotation Xrotation Yrotation
      JOINT Bip001_Spine2
      {
        OFFSET 2.24614e-005 14.5058 -1.69078
        CHANNELS 3 Zrotation Xrotation Yrotation
        JOINT Bip001_Neck
        {
          OFFSET 2.20278e-005 15.3945 -0.489414
          CHANNELS 3 Zrotation Xrotation Yrotation
          JOINT Bip001_L_Clavicle
          {
            OFFSET 6.06036 -0.000579998 0.00836775
            CHANNELS 3 Zrotation Xrotation Yrotation
            JOINT Bip001_L_UpperArm
            {
              OFFSET 11.5509 -0.0600302 0.00193952
              CHANNELS 3 Zrotation Xrotation Yrotation
              JOINT Bip001_L_Forearm
              {
                OFFSET 25.9523 0.0806089 -2.15551
                CHANNELS 3 Zrotation Xrotation Yrotation
                JOINT Bip001_L_Hand
                {
                  OFFSET 32.2475 0.153767 1.63968
                  CHANNELS 3 Zrotation Xrotation Yrotation
                  JOINT Bip001_L_Finger0
                  {
                    OFFSET 6.04639 -2.20976 5.90322
                    CHANNELS 3 Zrotation Xrotation Yrotation
                    End Site
                    {
                      OFFSET 4.22375 -1.43895 0.606485
                    }
                  }
                  JOINT Bip001_L_Finger1
                  {
                    OFFSET 11.0826 -0.704819 -0.198153
                    CHANNELS 3 Zrotation Xrotation Yrotation
                    End Site
                    {
                      OFFSET 6.20027 -0.397518 -0.0787166
                    }
                  }
                }
              }
            }
          }
          JOINT Bip001_R_Clavicle
          {
            OFFSET -6.06037 -0.000563197 0.00835105
            CHANNELS 3 Zrotation Xrotation Yrotation
            JOINT Bip001_R_UpperArm
            {
              OFFSET -11.5509 -0.0599978 0.00190698
              CHANNELS 3 Zrotation Xrotation Yrotation
              JOINT Bip001_R_Forearm
              {
                OFFSET -25.9523 0.0806822 -2.15589
                CHANNELS 3 Zrotation Xrotation Yrotation
                JOINT Bip001_R_Hand
                {
                  OFFSET -32.2475 0.153859 1.63989
                  CHANNELS 3 Zrotation Xrotation Yrotation
                  JOINT Bip001_R_Finger0
                  {
                    OFFSET -6.04641 -2.20976 5.90317
                    CHANNELS 3 Zrotation Xrotation Yrotation
                    End Site
                    {
                      OFFSET -4.22376 -1.43895 0.60647
                    }
                  }
                  JOINT Bip001_R_Finger1
                  {
                    OFFSET -11.0826 -0.704794 -0.198182
                    CHANNELS 3 Zrotation Xrotation Yrotation
                    End Site
                    {
                      OFFSET -6.20028 -0.397504 -0.0787333
                    }
                  }
                }
              }
            }
          }
          JOINT Bip001_Head
          {
            OFFSET 1.09673e-005 11.2744 2.05948
            CHANNELS 3 Zrotation Xrotation Yrotation
            End Site
            {
              OFFSET 2.89576e-005 20.8808 -2.77728e-005
            }
          }
        }
      }
    }
  }
}
MOTION
Frames:	9
Frame Time:	0.04
36.0016 95.3698 -27.6296 -3.04464 3.36646 15.3637 -1.06776 0.699576 1.97504 9.24254 -10.9341 8.99588 -1.38331 17.0999 -14.2595 2.20413 -10.2943 0.133087 1.73893 -1.92107 -2.36443 0.539263 -0.275631 -21.3154 -4.22771 5.96848 1.71266 -6.77424 -6.21102 0.143374 3.58245 -11.7216 3.94054 -2.15922 1.36182 3.96319 -2.15922 1.36182 3.96319 7.94261 -18.3937 -5.13021 -32.1489 17.1812 3.34915 -63.6906 44.9711 21.2791 18.5797 -14.638 -40.3936 8.73922 1.92873 1.63003 1.76556e-031 3.18055e-015 -3.18055e-015 1.76556e-031 3.18056e-015 -3.18055e-015 -9.83408 19.0954 23.2033 68.6212 -45.6321 79.1745 -57.9418 7.84439 86.2432 -13.9691 -5.43912 0.437468 -1.49088e-015 3.18055e-015 -2.48481e-015 1.39149e-015 3.18056e-015 -2.48481e-016 -8.67339 3.47361 -1.51232 
35.8123 95.467 -27.5896 -3.87073 3.8204 18.5307 -1.09605 0.631279 2.21378 9.97295 -12.5421 7.91778 -1.79512 17.4466 -15.3659 1.1062 -10.5658 0.0972139 1.83316 -1.06638 -2.6645 2.04456 0.294068 -25.9585 -4.93846 3.66867 2.0915 -6.32355 -5.22329 1.1827 3.56699 -11.6411 3.86398 -2.21129 1.2195 4.43966 -2.21417 1.21847 4.43937 6.34782 -19.1256 -6.1765 -31.9546 17.2055 5.67124 -62.5978 45.5726 23.1618 17.7284 -17.3805 -42.9587 8.65541 1.68401 2.61769 2.38542e-015 -3.18055e-015 -0 3.97569e-015 0 -0 -12.1163 19.1575 30.9848 29.2724 -36.8513 56.0412 -52.4015 8.11427 50.9606 -14.6249 -2.24344 2.50692 -7.95139e-016 0 -2.38542e-015 -7.95139e-016 3.18056e-015 -7.95139e-016 -6.8094 4.72243 -3.12342 
35.7126 95.4922 -27.5271 -4.28821 4.21701 21.1279 -1.12491 0.608969 2.5431 10.1037 -13.7912 6.90396 -2.14065 17.5297 -16.5055 1.31552 -10.0843 0.0985409 2.35282 -1.12614 -3.27168 2.83166 0.366136 -29.5209 -5.43289 2.61374 2.47932 -6.12885 -4.71054 1.67985 3.58558 -11.6726 3.85216 -2.2933 1.16665 5.0988 -2.28712 1.16662 5.09923 5.00816 -20.0619 -7.47691 -31.8075 17.321 8.0676 -61.4359 46.3219 24.7098 17.6182 -18.6238 -44.67 8.38935 1.60117 3.60209 4.77083e-015 1.59028e-015 -0 3.18055e-015 -1.59028e-015 -3.18055e-015 -13.1637 19.5222 37.5381 15.9709 -35.7135 49.9717 -48.928 10.7222 32.0036 -16.6944 -3.2059 3.12389 1.32417e-031 3.18055e-015 -2.38542e-015 0 0 -3.97569e-015 -5.3642 6.4375 -4.81345 
35.689 95.4818 -27.2454 -4.47131 4.29848 23.378 -1.09662 0.546701 2.73951 10.1215 -14.3463 6.52635 -2.36399 17.6233 -18.1342 1.43991 -9.86955 0.0981421 2.53961 -1.16562 -3.46598 3.22341 0.455638 -33.8012 -6.10829 2.58987 2.76095 -5.51397 -5.05448 3.34795 3.62619 -11.7313 3.79669 -2.21372 1.04041 5.48483 -2.21426 1.04038 5.48682 4.99362 -20.1208 -8.9527 -31.8671 16.2597 10.5918 -62.3711 46.9622 26.6437 18.7462 -18.4771 -45.7591 7.53751 1.6955 4.70771 -3.18055e-015 -1.59028e-015 6.36111e-015 -2.78299e-015 1.59028e-015 -0 -12.7293 19.6722 37.7564 20.3979 -44.2357 56.0868 -44.2177 14.2426 33.0924 -11.6516 -6.18271 0.589242 -3.18055e-015 0 -1.59028e-015 -1.76556e-031 -3.18056e-015 -3.18055e-015 -5.33093 7.47805 -6.12154 
35.6581 95.4305 -26.9375 -4.52495 4.1274 25.8755 -0.978576 0.378302 2.67227 9.98285 -14.8265 7.2907 -1.93182 18.381 -20.8634 0.424669 -10.573 0.0594441 2.0954 -0.0715918 -3.16039 3.64165 1.08138 -37.3816 -6.6484 2.27695 3.58991 -5.35192 -5.00531 3.8655 3.68164 -11.8419 3.8009 -1.97432 0.711282 5.35154 -1.9742 0.711462 5.3511 7.4741 -18.0648 -10.6238 -31.9336 13.5611 10.2833 -66.388 46.3282 30.2243 18.5288 -18.3042 -46.3731 7.75163 2.34906 5.67332 4.77083e-015 0 4.77083e-015 5.96354e-015 0 6.36111e-015 -17.817 15.152 34.2448 20.1066 -42.1261 56.5533 -40.8187 10.7121 32.1224 -13.5197 -1.85425 2.01089 9.54166e-015 -3.18055e-015 -2.38542e-015 9.54166e-015 0 -0 -7.60414 5.99227 -6.69698 
35.7453 95.4724 -26.6687 -4.129 3.48292 25.3905 -0.797414 0.407716 2.52053 9.93391 -13.7722 8.23456 -1.79746 18.4103 -20.7775 -0.209844 -10.9863 0.0341275 2.25311 0.139596 -3.28014 2.90681 1.04939 -34.9652 -6.57785 4.46108 3.36354 -5.84713 -5.13065 2.29779 3.75942 -12.0538 3.868 -1.61204 0.779924 5.04663 -1.61204 0.779924 5.04662 8.22576 -17.289 -10.6912 -32.3314 12.552 10.4465 -69.6531 46.836 33.3085 18.4514 -18.3016 -45.222 8.3591 2.58758 6.07212 3.57812e-015 0 3.18055e-015 3.97569e-015 -1.59028e-015 3.18055e-015 -20.0177 13.377 32.9645 16.7138 -36.9616 55.6942 -42.939 5.4674 31.4357 -15.6925 -0.617734 1.20273 -7.95139e-016 3.18055e-015 -3.97569e-016 7.95139e-016 -3.18056e-015 -0 -8.64337 5.7118 -6.42632 
35.8376 95.584 -26.4815 -3.72851 2.74212 22.7398 -0.645422 0.507713 2.52334 10.0644 -11.9311 8.35971 -1.98453 17.8358 -18.2358 -1.51877 -11.7888 -0.0260356 1.86028 1.11042 -3.00543 2.35658 1.27926 -31.419 -6.35717 5.45179 2.88793 -5.83825 -4.90743 1.66777 3.71641 -11.9479 3.85036 -1.30916 0.988694 5.05865 -1.31055 0.987821 5.05569 8.79866 -16.5531 -10.3668 -32.7147 11.6664 10.7972 -72.3228 49.5923 34.6665 19.4804 -17.0309 -41.0606 6.95458 2.88085 5.40691 -7.15625e-015 -3.18055e-015 -0 -5.1684e-015 0 -0 -19.8054 12.9066 33.0224 27.4863 -38.3024 63.0052 -49.2804 8.49107 41.9868 -11.3064 -3.01177 1.96309 2.38542e-015 3.18055e-015 -1.19271e-015 3.18055e-015 0 -2.38542e-015 -9.12301 4.88096 -5.94494 
35.8719 95.5841 -26.4735 -3.57452 2.3295 20.2376 -0.511861 0.521109 2.76966 9.82854 -10.737 9.10553 -1.54276 17.5043 -17.6528 -0.149077 -11.3515 0.0461237 2.0723 -0.1925 -2.97119 1.80571 1.2195 -29.151 -6.06786 6.24868 2.59199 -5.65753 -5.21797 1.84125 3.64314 -11.792 3.84664 -1.04892 1.01999 5.54417 -1.04892 1.01903 5.54415 11.2221 -15.8249 -11.1474 -35.1189 10.2432 10.0292 -74.1475 51.2523 35.5215 20.7325 -14.1616 -37.6017 5.27872 2.69492 4.65088 1.76556e-031 -3.18055e-015 3.18055e-015 -3.18055e-015 0 3.18055e-015 -19.5654 12.4194 30.2605 39.4544 -36.6036 71.5513 -54.7111 9.98029 54.9493 -8.32473 -2.98714 2.55535 3.57812e-015 0 3.97569e-015 2.78299e-015 3.18056e-015 7.95139e-016 -11.8056 3.63321 -5.70525 
35.9305 95.5059 -26.4938 -2.96684 1.84425 17.553 -0.511205 0.611929 2.71543 9.33703 -9.32937 9.43423 -1.37662 17.1461 -15.9517 1.07004 -10.9075 0.0930809 2.57053 -1.08794 -3.29078 0.854633 1.38433 -26.5432 -5.49783 7.00557 2.36478 -5.79584 -5.99776 1.98452 3.57088 -11.6344 3.8425 -1.05059 1.19887 5.43674 -1.0506 1.19894 5.43676 12.759 -14.66 -11.3326 -35.8927 8.82272 9.6246 -74.767 51.7888 34.7404 20.7524 -11.8826 -35.2342 4.33874 2.5007 3.98091 3.97569e-015 6.36111e-015 -0 3.18055e-015 3.18056e-015 -0 -17.5475 12.2714 28.9269 47.6415 -34.789 73.4676 -59.658 9.1138 69.3804 -6.76988 -3.89852 2.75808 6.36111e-015 6.36111e-015 1.98785e-015 8.74652e-015 0 3.77691e-015 -12.8726 2.4279 -5.38576 
